<svg xmlns="http://www.w3.org/2000/svg" viewBox="0 0 200 200" id="Meditation-1--Streamline-Barcelona">
  <desc>
    MEDITATION 1 Streamline Illustration: https://streamlinehq.com
  </desc>
  <defs></defs>
  <path d="M49.792 129.864a2.678 2.678 0 0 0 -2.02 -2.415 3.448 3.448 0 0 0 -2.388 0.8c-3.943 2.733 -6.093 7.314 -8.07 11.684 1.5 -3.312 6.056 -17.993 2.339 -20.673a2.064 2.064 0 0 0 -2.123 -0.021c-1.334 0.7 -8.96 9.4 -8.383 15.848a124.562 124.562 0 0 0 -6.093 -28.887c-1.245 -3.665 -3.848 -4.847 -5.634 -1.3 -3.716 7.411 -3.246 16.14 -2.69 24.41 0.378 5.634 0.778 11.37 2.841 16.621 -10.171 -11.887 -14.318 -9.449 -11.943 -1.85 1.912 6.131 4.613 14.844 10.717 18.047 7.379 3.868 16.8 -0.8 21.9 -6.423 5.661 -6.238 8.4 -14.519 10.981 -22.535a7.876 7.876 0 0 0 0.566 -3.306z" fill="#ffd35c" stroke-width="1"></path>
  <path d="M86.869 42.06c-0.3 -0.248 -0.734 0.178 -0.432 0.432q1.977 1.644 3.96 3.3c0.3 0.248 0.734 -0.179 0.432 -0.432 -1.318 -1.107 -2.639 -2.201 -3.96 -3.3zM90.3 29.392c-0.237 -0.308 -0.767 0 -0.524 0.308q2.917 3.808 5.543 7.822c0.216 0.329 0.74 0.022 0.524 -0.308Q93.215 33.2 90.3 29.392zm11.473 -2.873c-0.129 -0.368 -0.719 -0.211 -0.589 0.162a72.407 72.407 0 0 1 2.177 7.578c0.086 0.384 0.675 0.222 0.589 -0.162a70.846 70.846 0 0 0 -2.177 -7.578zm18.835 0.032a65.527 65.527 0 0 1 -1.226 6.223c-0.091 0.384 0.5 0.546 0.589 0.162a70.31 70.31 0 0 0 1.226 -6.223c0.054 -0.383 -0.532 -0.55 -0.589 -0.162zm17.512 5.299a77.748 77.748 0 0 1 -6.7 9.35c-0.249 0.3 0.178 0.735 0.431 0.433a78.466 78.466 0 0 0 6.8 -9.47 0.308 0.308 0 0 0 -0.531 -0.313zm3.355 18.204a15.455 15.455 0 0 1 -4.834 2.182 0.306 0.306 0 0 0 0.162 0.589 15.941 15.941 0 0 0 4.98 -2.247c0.324 -0.216 0.017 -0.745 -0.308 -0.524zM81.651 52c-7.256 -3.537 -7.218 -3.662 -7.908 -3.549 -0.383 0.065 -0.221 0.654 0.162 0.589 0.342 -0.055 -0.02 -0.159 7.439 3.489 0.351 0.171 0.664 -0.352 0.307 -0.529z" fill="#b26ee6" stroke-width="1"></path>
  <path d="M184.883 159.6c2.1 -3.021 8.05 -13.12 7.449 -16.577a2.619 2.619 0 0 0 -2.458 -2.3 3.625 3.625 0 0 0 -1.874 0.877 31.633 31.633 0 0 0 -10.506 13.715c0.15 -8.943 0.547 -31.253 -5.5 -39.151 -1.574 -2.035 -3.16 -0.569 -3.743 1.723a71.707 71.707 0 0 0 -1.227 28.9 37.447 37.447 0 0 0 -9.868 -12.753c-5.425 -4.523 -7.181 3.486 -6.25 10.463 3.377 25.371 20.267 34.4 41.825 18.193 5.087 -3.816 -1.425 -7.683 -7.848 -3.09z" fill="#ffceb6" stroke-width="1"></path>
  <path d="M75.418 127.125c-0.1 -0.105 -5.425 -5.312 -7.147 -6.482 -4.557 3.566 -24.123 15.866 -23.9 16.057 0.286 0.27 0.075 0.9 -0.206 0.623 -3.8 -3.736 -9.56 -3.773 -12 -1.5 -3.2 3 1.693 4.2 4.044 1.586 0.492 -0.547 0.654 0.7 3.494 3.371 0.287 0.271 -0.146 0.7 -0.432 0.433 -0.486 -0.46 -0.94 -0.94 -1.377 -1.443q-1.232 1.224 -2.458 2.453c-0.389 0.389 -1.323 0.74 -1.7 0.4 -0.587 1.459 -1.048 2.129 0.6 1.939 0.389 -0.043 0.383 0.567 0 0.61a1.657 1.657 0 0 1 -1.556 -0.405c-0.741 -0.9 1.546 -3.544 0.981 -4.911 -0.929 -2.251 -5.976 2 -6.066 4.619a3.824 3.824 0 0 0 5.744 2.643 0.306 0.306 0 0 1 0.367 0.48c-0.86 0.8 -2.6 2.626 -2.582 3.517a2.472 2.472 0 0 0 0.6 1.348c1.369 1.135 4.11 -2 4.9 -2.645 0.3 -0.243 0.623 0.157 0.336 0.432a6.338 6.338 0 0 0 -2.227 3.3c-0.251 0.945 -0.144 1.7 0.838 1.93 2.558 0.593 3.447 -4.892 5.369 -6.844 1.965 -1.991 4.529 -2.2 10.134 -4.688 8.538 -3.814 19.367 -9.16 26.144 -14.536 -0.609 -0.774 -1.23 -1.553 -1.9 -2.287zm66.938 14.222a7.267 7.267 0 0 0 -1.292 -1.82c-3.479 -4.06 -1.768 1.741 -3.991 -17.734l-10.821 0.553c0.012 0.11 0.264 14.561 2.178 19.872 3 10.31 10.806 14.861 6.369 5.844 -0.141 -0.291 0.321 -0.406 0.559 -0.12 3.947 4.772 7.758 4.6 2.946 -2.1 -0.247 -0.345 -0.192 -0.258 -0.216 -0.3 -0.237 -0.316 0.174 -0.541 0.415 -0.237a2.249 2.249 0 0 0 1.005 0.467 2.823 2.823 0 0 0 2.848 -1.51c-1.646 1.043 -4.391 -0.606 -6.018 -2.209 -1.983 -1.95 -0.967 -2.891 -1.456 -2.308 -0.27 0.33 -0.635 0.838 -1.083 0.832 -2.244 -0.023 -1.412 -4.536 0.441 -6.936 0.27 -0.287 0.817 -0.006 0.547 0.276 -2.389 2.5 -2.343 6.351 -1.015 6.238 0.778 -0.057 2.932 -4.027 3.291 -4.782 0.167 -0.357 0.737 -0.173 0.555 0.17 -3.013 5.682 -2.069 0.825 2.392 4.282 0.312 0.241 0.022 0.661 -0.28 0.413a8.607 8.607 0 0 0 -1.478 -1.061c-2.155 -1.08 -3.691 0.416 -2.062 2.154 4.367 4.62 7.318 3.019 6.166 0.016z" fill="#cc6666" stroke-width="1"></path>
  <path d="M137.759 114.642c0.451 -28.246 -10.2 -36.864 -29.575 -37.072 -9.96 -0.102 -18.576 6.03 -24.691 13.43 -8.639 10.461 -9.613 20.4 -14.633 25.961a3.644 3.644 0 0 0 -0.956 1.335c-0.3 1.035 0.581 1.967 0.789 1.863a130.076 130.076 0 0 1 10.247 10.29 98.517 98.517 0 0 0 12.121 -23.3c0.076 -1.157 0.124 -2.315 0.135 -3.471a0.305 0.305 0 0 1 0.61 0 64.847 64.847 0 0 1 -0.529 7.589 0.346 0.346 0 0 1 -0.437 0.279c-4.568 30.37 -4.765 28.971 -4.392 29.228 11.024 7.609 27.369 4.786 39.735 -0.973a0.7 0.7 0 0 1 0.8 0.1c0.506 -0.224 -0.5 -2.2 -1.242 -17.4a19.879 19.879 0 0 1 -2.263 -0.021c-0.37 0.023 -0.424 -0.228 -0.608 -5.921a119.381 119.381 0 0 1 0.235 -14.519c-0.349 -0.478 -1.364 -2.143 -0.751 -2.3 0.407 -0.11 0.315 0.324 0.843 1.317 0.119 -1.231 0.254 -2.463 0.41 -3.689 0.049 -0.384 0.659 -0.388 0.611 0 -0.509 3.929 -0.586 5.043 -0.661 5.152a126.84 126.84 0 0 0 -0.015 19.48 11.413 11.413 0 0 0 2.269 -0.113c0.052 0 0.077 -0.068 0.211 -0.071 12.568 -0.278 11.419 -0.8 11.491 -0.159 0.54 -0.022 1.019 -0.035 1.019 -0.035 0.285 -0.034 -0.78 -6.586 -0.773 -6.98zm-47.279 -8.151a8.727 8.727 0 0 1 -0.38 -3.191 0.3 0.3 0 0 1 0.3 -0.3c0.645 0 -0.079 0.958 0.665 3.332 0.123 0.368 -0.465 0.531 -0.585 0.159z" fill="#dcbeff" stroke-width="1"></path>
  <path d="M140.913 145.545a2.19 2.19 0 0 1 -1.739 -0.022c-0.446 0.02 -0.326 0.081 -0.659 -0.394 -0.238 -0.307 -0.67 0.123 -0.432 0.432 4.983 6.871 1.278 7.085 -2.809 2.15 -0.232 -0.281 -0.622 0.075 -0.481 0.367 4.9 10.236 -5.608 2.384 -7.249 -10.3 -0.868 -6.8 -1.146 -14.791 -1.21 -15.39 0.1 -0.006 10.488 -0.573 10.733 -0.583 1.955 20.071 0.64 13.829 3.992 17.733 3.152 3.683 0.6 7.316 -4.721 1.686 -1.9 -2.027 0.355 -3.473 3.387 -0.973 0.3 0.249 0.734 -0.178 0.432 -0.431 -4.466 -3.732 -5.179 1.356 -2.544 -4.263 0.167 -0.35 -0.362 -0.663 -0.524 -0.307 -0.344 0.733 -2.481 4.675 -3.252 4.731 -1.392 0.122 -1.166 -3.777 0.946 -6.049 0.264 -0.287 -0.162 -0.719 -0.433 -0.433 -3.408 3.664 -1.877 9.288 0.68 6.266 -0.129 1.389 2.651 3.666 3.782 4.311 1.77 1 3.834 0.953 4.143 -0.935 0.571 -3.469 -3.771 -5.851 -3.808 -6.26 -1.589 -15.766 -1.352 -15.735 -1.8 -15.708 -12.192 0.674 -11.345 0.571 -11.517 0.691h-0.03a11.4 11.4 0 0 1 -2.268 0.114 122.6 122.6 0 0 1 0.675 -24.632c0.049 -0.388 -0.562 -0.384 -0.61 0a116.819 116.819 0 0 0 -0.41 3.689 5.7 5.7 0 0 1 -0.471 -1.107 0.3 0.3 0 0 0 -0.583 0.162 6.546 6.546 0 0 0 0.962 1.923c-0.512 5.658 -0.8 20.627 0.161 20.57a22.107 22.107 0 0 0 2.475 -0.108c1.193 24.507 2.645 16.286 0.443 17.3 -12.619 5.848 -28.648 8.369 -39.881 0.88 0.053 -0.391 0.509 -0.344 -3.841 -0.022 -37.252 2.752 -36.323 7.367 -16.174 -3.428a77.038 77.038 0 0 0 11.7 -7.541 0.312 0.312 0 0 0 0 -0.427c-1.077 -1.323 -8.666 -9.275 -9.685 -9.275 -0.433 -0.027 -0.778 0.968 -10.112 6.942 -15.986 10.265 -13.762 9.8 -14.6 9.118a11.023 11.023 0 0 0 -8.016 -2.221c-4.391 0.61 -5.958 4.353 -4.024 5.235 -2.388 1.067 -4.361 4.012 -4.256 5.369 0.518 4.657 5.4 3.831 5.147 3.776 -0.677 0.808 -1.817 2.41 -1.577 3.451a1.9 1.9 0 0 0 1.4 1.4 3.728 3.728 0 0 0 2.646 -0.874c-1.831 3.816 0.957 4.9 2.923 3.078 2.711 -2.535 1.177 -5.678 6.541 -7.973 -4.514 6.247 -2.558 13.86 9.556 17.291a28.372 28.372 0 0 0 24.551 3.031c0.208 0.467 1.6 3.436 2.382 3.436 7.985 0.224 19.583 0.248 31.4 -0.114 2.939 0.961 13.683 4.208 18.744 2.069l-1.75 -3.117c15.5 -1.59 17.434 -3.475 19.462 -7.141 4.033 -7.307 0.343 -16.652 -7.797 -17.173zm-99.866 3.09c-1.911 1.938 -2.815 7.437 -5.369 6.843 -1.912 -0.447 -0.039 -3.97 1.485 -5.233 0.291 -0.276 -0.135 -0.675 -0.432 -0.433 -0.533 0.428 -3.445 3.551 -4.861 2.377a1.3 1.3 0 0 1 -0.471 -0.94c-0.03 -0.884 1.514 -2.82 2.415 -3.656a0.307 0.307 0 0 0 -0.368 -0.482 3.608 3.608 0 0 1 -5.536 -2.576c0.093 -2.694 4.765 -6.711 5.671 -4.511 0.693 1.659 -2.968 5.549 0.763 5.143 0.383 -0.044 0.388 -0.654 0 -0.611 -3.14 0.355 1.586 -3.488 -0.66 -5.374 4.322 -0.785 1.234 -2.8 4.2 0.588 0.438 0.5 0.891 0.983 1.377 1.443 0.287 0.27 0.719 -0.162 0.433 -0.433 -2.8 -2.636 -2.95 -4.1 -3.458 -3.575 -2.437 2.478 -7.1 1.625 -3.873 -1.367 2.432 -2.265 8.01 -2.127 11.792 1.486 0.281 0.27 0.713 -0.157 0.433 -0.433 -0.424 -0.423 17.791 -11.648 23.67 -16.248a65.265 65.265 0 0 1 9.058 8.762c-6.817 5.394 -18.1 10.939 -26.144 14.536 -5.411 2.421 -8.14 2.679 -10.125 4.694zm10.123 13.877s0.367 0.345 1.053 0.875a28.203 28.203 0 0 1 -1.577 -0.611c-12.343 -5.2 -6.85 -15.239 -4.673 -16.1 3.6 -1.272 3.061 -1.576 11.56 -2.852 8.93 -1.331 27.871 -3.006 28.418 -2.653 10.868 7.378 28.291 5.195 39.924 -0.545 0.692 -0.324 0.6 -0.573 1.08 0.319 0.288 0.56 0.413 0.926 0.718 0.853a25.069 25.069 0 0 0 1.74 4.516c-13.763 1.5 -34.479 4.683 -48.107 6.871 -0.7 -0.351 -1.395 -0.712 -2.08 -1.086 -0.346 -0.189 -0.659 0.34 -0.314 0.524 0.46 0.248 0.925 0.487 1.389 0.724 -4.808 0.775 -3.408 0.565 -3.992 0.648 -0.272 0.047 -0.37 0.2 -0.119 3.462 -0.319 -0.057 -16.512 -3.086 -25.02 5.055zm96.161 1.253a6.7 6.7 0 0 1 -1.967 1.971c-9.388 5.729 -53.967 4.7 -64.529 4.7 -3.181 -3.958 -4.137 -11.123 -4.137 -15.876 13.935 -2.237 37.74 -6.023 53.012 -7.664 4.444 8.367 8.434 8.221 6.31 2.517a7.919 7.919 0 0 0 3.224 2.246 1.378 1.378 0 0 0 1.853 -1.3c0.013 -1.326 -1.06 -3.018 -1.88 -4.229a15.781 15.781 0 0 1 2.209 0.08c7.418 0.852 11.093 10.315 5.905 17.555z" fill="#000000" stroke-width="1"></path>
  <path d="M90.667 111.26c-0.052 0.38 0.556 0.393 0.61 0a62.345 62.345 0 0 0 0.529 -7.589 0.305 0.305 0 0 0 -0.61 0 63.255 63.255 0 0 1 -0.529 7.589z" fill="#000000" stroke-width="1"></path>
  <path d="M91.064 106.328c-0.771 -2.439 0 -3.332 -0.665 -3.332a0.308 0.308 0 0 0 -0.3 0.3 8.76 8.76 0 0 0 0.383 3.193c0.112 0.374 0.7 0.211 0.582 -0.161zm52.701 46.428a11.165 11.165 0 0 1 0.859 5.456c-0.037 0.389 0.573 0.389 0.61 0a11.846 11.846 0 0 0 -0.939 -5.764c-0.162 -0.356 -0.685 -0.048 -0.53 0.308zM75.04 149.7a47.507 47.507 0 0 0 -5.629 -1.372c-6.789 -1.369 -1.169 0.2 -7.838 -2.582a0.3 0.3 0 0 0 -0.162 0.584c4.375 1.83 1.331 0.564 -1.728 0.669 -0.389 0.011 -0.4 0.621 0 0.61 3.265 -0.1 12.336 1.732 15.2 2.679 0.367 0.124 0.524 -0.466 0.157 -0.588zm90.23 4.9c0.272 -0.185 0.22 -0.29 0.329 -4.791a0.306 0.306 0 0 0 -0.611 0 852.63 852.63 0 0 0 -0.1 3.97q-2.008 -4.245 -4.429 -8.28a12.442 12.442 0 0 0 -0.07 -5.57c-0.092 -0.383 -0.682 -0.22 -0.59 0.163a11.707 11.707 0 0 1 0.184 4.629 86.912 86.912 0 0 0 -4.041 -6.066c-0.226 -0.314 -0.755 -0.011 -0.523 0.308a95.264 95.264 0 0 1 4.126 6.2 22.257 22.257 0 0 1 -4.661 -1.41c-0.357 -0.151 -0.67 0.373 -0.308 0.524a22.871 22.871 0 0 0 5.4 1.583 93.67 93.67 0 0 1 8.249 17.674c0.129 0.368 0.718 0.211 0.589 -0.162a100.045 100.045 0 0 0 -3.544 -8.772zm8.41 -14.4q-1.208 2.038 -2.615 3.944a77.575 77.575 0 0 1 0.649 -10.863c0.048 -0.389 -0.562 -0.384 -0.611 0a81.115 81.115 0 0 0 1.329 28.149c0.087 0.383 0.675 0.221 0.589 -0.163a80.21 80.21 0 0 1 -1.961 -16.318c0.441 0.024 2.921 -4.061 3.144 -4.441a0.3 0.3 0 0 0 -0.524 -0.308zm6.277 18.012a71.49 71.49 0 0 1 6.714 -9.416c0.254 -0.3 -0.178 -0.728 -0.432 -0.431a68.025 68.025 0 0 0 -2.793 3.549 55.853 55.853 0 0 1 -0.011 -2.523 0.305 0.305 0 0 0 -0.61 0c-0.111 5.294 0.953 1.215 -3.4 8.513a0.309 0.309 0 0 0 0.532 0.308zm10.457 1.955a45.5 45.5 0 0 1 -7.595 3.83 15.356 15.356 0 0 1 2.448 -3.09c0.28 -0.275 -0.152 -0.7 -0.433 -0.432 -0.677 0.656 -3.03 3.341 -2.684 3.776 -0.81 0.3 -1.627 0.589 -2.453 0.848 -0.372 0.119 -0.216 0.707 0.163 0.589a46.708 46.708 0 0 0 5.131 -1.95c0.867 0.236 4.172 0.656 3.916 -0.206 -0.151 -0.536 -0.756 0.162 -3 -0.216a46.437 46.437 0 0 0 4.813 -2.63c0.337 -0.2 0.029 -0.729 -0.306 -0.519zm-170.385 -48.22a0.306 0.306 0 0 0 -0.611 0c-0.071 9.372 1.788 10.214 -1.172 6.033 -0.243 -0.358 -0.74 0.007 -0.524 0.308 4.181 5.939 1.232 0.841 3.917 10.668a0.305 0.305 0 0 0 0.588 -0.162 61.4 61.4 0 0 1 -2.198 -16.847zM16.923 150.6c0.221 0.081 0.443 0.162 0.67 0.249 0.367 0.135 0.529 -0.454 0.162 -0.589 -1.822 -0.683 -0.674 0.7 -6.482 -7.87 -0.216 -0.324 -0.746 -0.016 -0.524 0.308q2.268 3.346 4.575 6.66c-0.767 -0.281 -1.529 -0.562 -2.3 -0.842 -0.367 -0.135 -0.529 0.453 -0.162 0.588 1.021 0.378 2.048 0.751 3.068 1.129 2.2 3.144 2.9 4.17 5.57 7.876 0.226 0.313 0.756 0.011 0.524 -0.308q-2.582 -3.578 -5.101 -7.201zm16.691 -18.657c0.21 -0.734 0.459 -1.452 0.735 -2.166 0.256 0.316 0.436 0.047 1.89 -0.907a0.308 0.308 0 0 0 0.108 -0.416c-0.227 -0.355 -0.438 -0.1 -1.788 0.794a24.344 24.344 0 0 1 1.048 -2.209c0.189 -0.346 -0.34 -0.654 -0.524 -0.308a24.724 24.724 0 0 0 -2.058 5.045 0.306 0.306 0 0 0 0.589 0.167zm-10.722 3.674c-0.034 -0.39 -0.643 -0.39 -0.611 0a26.823 26.823 0 0 0 2.145 8.351c0.156 0.356 0.68 0.048 0.524 -0.308a25.647 25.647 0 0 1 -2.058 -8.043zm135.491 17.29c-0.216 -0.325 -0.741 -0.021 -0.525 0.308l2.577 3.927c0.216 0.324 0.74 0.022 0.524 -0.308 -0.859 -1.307 -1.714 -2.622 -2.576 -3.927z" fill="#000000" stroke-width="1"></path>
  <path d="M8.691 159.638c-0.216 -0.325 -0.746 -0.022 -0.524 0.308l2.981 4.489c0.217 0.323 0.746 0.021 0.524 -0.308q-1.498 -2.244 -2.981 -4.489zm3.279 1.107c-0.269 -0.287 -0.7 0.147 -0.432 0.432a29.046 29.046 0 0 1 3.586 4.754 0.3 0.3 0 0 0 0.524 -0.308 29.025 29.025 0 0 0 -3.678 -4.878zm25.43 -1.652a0.3 0.3 0 0 0 -0.524 0.307q1.588 2.139 3.182 4.273a0.3 0.3 0 0 0 0.524 -0.308c-1.064 -1.421 -2.138 -2.839 -3.182 -4.272zm2.685 -0.957c-0.216 -0.324 -0.745 -0.021 -0.524 0.308a16.149 16.149 0 0 1 2.274 5.137c0.092 0.378 0.681 0.222 0.589 -0.162a16.869 16.869 0 0 0 -2.339 -5.283zM29.077 163.8c-0.213 -0.272 -0.724 0.064 -0.432 0.432 2.067 2.667 1.782 3.943 2.376 3.77a0.3 0.3 0 0 0 0.211 -0.373 14.59 14.59 0 0 0 -2.155 -3.829zm2.787 0.451a4.831 4.831 0 0 1 1.236 2.739 0.3 0.3 0 0 0 0.605 0 5.542 5.542 0 0 0 -1.41 -3.166c-0.263 -0.291 -0.695 0.141 -0.431 0.427zm120.56 -3.387c-0.232 -0.313 -0.761 -0.006 -0.524 0.308a21.894 21.894 0 0 1 2.96 5.407c0.136 0.362 0.724 0.2 0.589 -0.162a22.9 22.9 0 0 0 -3.025 -5.553zm3.676 2.536c-0.215 -0.324 -0.745 -0.021 -0.524 0.308a26.819 26.819 0 0 1 2.539 4.862c0.146 0.362 0.735 0.2 0.589 -0.162a27.613 27.613 0 0 0 -2.604 -5.008zm36.745 0.327a57.822 57.822 0 0 0 -6.515 5.8c-0.275 0.282 0.157 0.714 0.433 0.433a58.126 58.126 0 0 1 6.39 -5.705c0.308 -0.236 0.005 -0.766 -0.308 -0.528zM194.5 167a26.069 26.069 0 0 1 -4.894 3.954c-0.329 0.2 -0.026 0.735 0.309 0.524a27.1 27.1 0 0 0 5.018 -4.051c0.278 -0.286 -0.153 -0.718 -0.433 -0.427zm-46.8 0.011a9.688 9.688 0 0 0 -2.528 4.144c-0.114 0.377 0.475 0.534 0.589 0.162a9.02 9.02 0 0 1 2.371 -3.873c0.279 -0.276 -0.148 -0.709 -0.432 -0.433zm3.693 1.689a14.65 14.65 0 0 0 -2.712 3.133c-0.211 0.329 0.313 0.637 0.524 0.308 1.813 -2.814 3.09 -2.942 2.614 -3.441a0.3 0.3 0 0 0 -0.426 0zm11.473 -34.763a0.306 0.306 0 0 0 0.589 -0.162 29.553 29.553 0 0 1 -0.049 -16.27 0.306 0.306 0 0 0 -0.589 -0.162 30.509 30.509 0 0 0 0.049 16.594zm18.311 4.013a50.116 50.116 0 0 0 0.951 -12.3c-0.016 -0.388 -0.626 -0.394 -0.61 0a50.234 50.234 0 0 1 -0.93 12.138c-0.075 0.383 0.512 0.546 0.589 0.162zM29.746 122.507a85.654 85.654 0 0 1 2.739 -11.446c0.119 -0.373 -0.47 -0.535 -0.589 -0.163a85.09 85.09 0 0 0 -2.738 11.447c-0.065 0.383 0.524 0.545 0.588 0.162zm-18.214 11.77a13.438 13.438 0 0 0 -3.149 -5.818c-0.265 -0.286 -0.7 0.146 -0.432 0.432a12.689 12.689 0 0 1 2.992 5.548 0.306 0.306 0 0 0 0.589 -0.162z" fill="#6dd3a8" stroke-width="1"></path>
  <path d="M123.928 62.5c-5.143 1.729 -6.009 -4.461 -9.7 -4.411 -2.114 0.021 -3.838 2.483 -5.925 2.656a2.11 2.11 0 0 1 -2.339 -1.6c-0.267 -2.948 -5.425 2.088 -8.73 2.938 -0.285 3.933 -0.326 8.513 0.856 9.993a10.658 10.658 0 0 0 4.743 3.052c-0.315 5.518 -0.249 5.075 2.912 5.715 3.5 0.75 5.58 0.451 8.945 -0.1 1.077 -0.191 1.422 0.275 1.345 -5.293 4.426 -1.812 4.456 -4.869 4.915 -8.016 0 0 3.236 1.334 5.148 -0.141 1.527 -1.169 0.649 -4.086 -2.17 -4.793zm-20.492 12.828c3.7 1.2 8.375 1.592 12 0.352 0.01 1.28 -0.032 2.555 -0.141 3.824 -0.049 0.572 0.268 0.509 -1.7 0.8 -5.466 0.893 -10.007 -0.454 -10.128 -0.816" fill="#cc6666" stroke-width="1"></path>
  <path d="M97.232 62.078c3.247 -0.81 8.364 -5.861 8.73 -2.938a2.113 2.113 0 0 0 2.339 1.6c2.087 -0.173 3.6 -2.382 5.723 -2.415 3.746 -0.05 4.72 5.906 9.9 4.17a4.927 4.927 0 0 0 2.347 -7.524 3.676 3.676 0 0 0 2.829 -0.871c1.784 -2.1 -0.687 -9.556 -10.814 -7.8l-0.767 -0.221c-1.335 -1.7 -2.826 -3.452 -4.889 -4.078 -2.912 -0.876 -8.578 -0.007 -8.767 3.667a8.371 8.371 0 0 0 -4.2 -0.113c-3.484 0.823 -3.166 3.607 -1.858 4.17a13.856 13.856 0 0 1 -2.388 1.361c-5.744 3.237 -5.317 12.773 1.815 10.992z" fill="#000000" stroke-width="1"></path>
  <path d="M115.715 62.31c-0.654 -0.939 -2.669 -1.926 -2.669 -1.107 0 0.581 1.141 0.01 2.145 1.415a0.3 0.3 0 0 0 0.524 -0.308zm-15.201 -0.129c1.106 -1.131 2.075 -0.233 2.026 -0.924 -0.029 -0.936 -3.106 0.332 -2.453 0.929a0.306 0.306 0 0 0 0.427 -0.005zm13.958 3.154c-0.011 1.58 -2.576 1.111 -2.042 -0.416 0.187 -0.622 -0.391 -0.634 -0.5 -0.389a1.664 1.664 0 0 0 2.6 1.967 1.6 1.6 0 0 0 0.546 -1.167 0.306 0.306 0 0 0 -0.604 0.005zm-10.798 -0.956a0.306 0.306 0 0 0 -0.373 0.211c-0.38 2.124 -2.982 1.495 -2.42 0.038a0.3 0.3 0 1 0 -0.583 -0.162 1.6 1.6 0 0 0 1.469 2.106c1.633 0.115 2.564 -2.016 1.907 -2.193zm6.801 5.288c-2.313 1.686 -4.351 1.038 -4.991 -0.394 -0.162 -0.356 -0.686 -0.049 -0.524 0.308 0.756 1.681 3.246 2.507 5.828 0.61 0.312 -0.226 0.005 -0.756 -0.313 -0.524z" fill="#000000" stroke-width="1"></path>
</svg>